<?xml version="1.0" encoding="utf-8"?>
<svg id="svg28" preserveAspectRatio="xMidYMid meet" viewBox="0 0 1280 1280" height="1280pt" width="1280pt" version="1.0" xmlns="http://www.w3.org/2000/svg" xmlns:bx="https://boxy-svg.com">
  <defs id="defs32">
    <style bx:fonts="Archivo Black">@import url(https://fonts.googleapis.com/css2?family=Archivo+Black%3Aital%2Cwght%400%2C400&amp;display=swap);</style>
  </defs>
  <g transform="matrix(1, 0, 0, 1, 1, 3)">
    <title>Book surfaces</title>
    <polyline style="fill: rgb(216, 216, 216);" points="253.583 248.459 217.213 1190.838 313.943 1260.137 431.494 1229.797 460.235 1215.112 496.465 289.596">
      <title>Spine</title>
    </polyline>
    <polyline style="fill: rgb(255, 253, 253);" points="862.851 9.557 942.774 61.584 1047.595 93.632 807.715 187.174 445.267 292.97 334.48 291.083 271.749 252.97 264.814 218.603">
      <title>Pages</title>
    </polyline>
    <polyline style="fill: rgb(216, 216, 216);" points="513.967 291.758 459.519 1205.272 1024.588 984.146 1073.532 115.333">
      <title>Face</title>
    </polyline>
  </g>
  <g transform="matrix(0.1, 0, 0, -0.1, 204.101212, 1279.919067)" fill="#000000" stroke="none" id="g26">
    <title>Book outline</title>
    <path d="m 6360,12769 c -418,-109 -1503,-469 -2680,-889 -157,-56 -397,-141 -535,-190 C 953,10914 497,10730 425,10591 370,10483 287,9290 170,6900 146,6413 98,5262 75,4625 62,4246 48,3865 45,3780 23,3194 8,2453 4,1705 L -1,835 228,590 C 454,349 547,262 685,163 837,55 907,27 1079,10 c 371,-37 806,36 1031,174 108,66 395,197 855,391 346,145 722,302 900,375 105,43 341,140 525,215 376,154 1854,746 2085,835 83,32 267,104 410,160 143,56 445,171 670,257 226,85 446,173 490,195 161,81 288,186 348,289 92,157 158,866 237,2562 5,119 15,314 20,432 6,118 15,313 20,433 13,276 28,589 40,860 6,116 15,309 20,427 6,118 15,312 20,430 6,118 15,312 20,430 6,118 14,311 20,428 89,1899 102,2330 79,2632 -17,235 -50,347 -120,410 -53,47 -116,62 -299,70 -187,7 -326,26 -480,65 -355,89 -646,229 -907,437 -168,134 -301,212 -437,258 -94,32 -125,31 -266,-6 z m 414,-269 c 65,-24 14,-72 -179,-165 -196,-95 -419,-183 -1127,-444 -76,-28 -199,-73 -273,-101 -74,-27 -195,-72 -267,-99 -73,-27 -194,-72 -268,-99 -74,-28 -216,-80 -315,-117 -189,-70 -1071,-397 -1335,-495 -161,-60 -275,-102 -915,-340 -1152,-428 -1129,-421 -1206,-400 -73,20 -147,112 -163,201 -11,64 5,86 96,129 249,115 1530,558 2808,970 190,62 426,138 525,170 99,32 281,91 405,130 124,39 335,107 470,150 135,43 459,146 720,228 261,83 543,171 625,197 303,96 346,105 399,85 z m 358,-267 c 10,-9 18,-30 18,-49 0,-28 -7,-39 -42,-64 -159,-116 -969,-463 -2088,-897 -135,-52 -312,-121 -395,-153 -1258,-489 -2471,-924 -2860,-1026 -154,-40 -267,-50 -272,-24 -7,34 55,75 223,147 465,198 2037,818 3569,1408 176,68 520,201 765,295 356,138 887,342 970,373 32,12 94,7 112,-10 z m 789,-422 c 10,-13 19,-27 19,-33 0,-52 -1668,-640 -3570,-1256 -713,-232 -1357,-415 -1526,-435 -52,-6 -73,5 -54,28 41,50 218,123 1090,452 2077,783 3159,1150 3700,1254 64,12 132,17 208,16 106,-2 115,-4 133,-26 z m 606,-710 c -7,-354 -16,-604 -42,-1211 -16,-366 -22,-475 -85,-1735 -22,-440 -49,-980 -60,-1200 C 8221,4580 8118,3122 8062,3033 8045,3006 7588,2812 6756,2479 6148,2235 5270,1891 4420,1565 3729,1300 2986,1023 2798,961 c -54,-18 -106,-30 -116,-27 -52,17 -61,118 -33,386 53,517 83,1014 216,3540 159,3010 213,3922 265,4465 45,459 53,530 59,536 3,4 303,98 666,209 363,111 980,300 1370,420 391,120 800,245 910,279 110,33 313,94 450,136 962,293 1915,562 1939,548 6,-4 7,-140 3,-352 z M 804,9969 c 50,-17 183,-72 296,-122 356,-156 469,-184 719,-174 207,8 605,64 763,108 40,11 89,22 110,26 33,5 38,3 53,-28 42,-81 40,-389 -10,-1339 -26,-489 -69,-989 -95,-1103 -5,-22 -17,-45 -27,-51 -58,-34 -271,-110 -423,-150 -362,-95 -808,-113 -1085,-45 -105,26 -268,106 -331,163 -171,153 -204,439 -174,1526 15,565 40,1094 56,1188 7,42 27,42 148,1 z M 953,6809 c 111,-49 214,-83 342,-111 88,-20 129,-22 350,-22 272,-1 302,2 744,75 134,21 246,37 249,34 10,-10 -116,-2322 -153,-2790 -50,-644 -92,-834 -201,-897 -113,-66 -673,-86 -1146,-43 -212,20 -353,47 -427,83 -72,35 -180,141 -216,212 -25,50 -28,68 -38,245 -18,314 7,1357 73,3060 5,143 10,281 10,308 v 47 l 162,-81 c 90,-45 202,-99 251,-120 z M 677,2776 c 59,-18 167,-54 238,-79 204,-72 294,-87 550,-94 201,-5 614,15 878,43 l 57,6 -2,-993 -3,-993 -150,-43 C 1668,457 1387,402 1170,413 888,427 587,577 450,772 c -86,123 -85,113 -85,668 1,471 10,706 41,1050 16,181 31,285 46,314 9,16 18,18 64,12 29,-3 102,-21 161,-40 z" id="path24"/>
  </g>
  <g transform="matrix(1, 0, 0, 1, -19, -6)">
    <title>A...Z</title>
    <text id="text34" style="font-family: &quot;Archivo Black&quot;; font-size: 200px; font-weight: 700; line-height: 270px; white-space: pre;" transform="matrix(0.956305, -0.292372, 0.292372, 0.956305, 3.066788, 263.89859)" x="381.673" y="677.62">A...Z</text>
  </g>
  <g>
    <title>Check</title>
    <text style="font-style: normal; font-weight: normal; font-size: 360px; line-height: 1.25; font-family: sans-serif; fill: rgb(0, 0, 0); fill-opacity: 1; stroke: none; stroke-width: 9; white-space: pre;" x="593.607" y="1025.853" id="text42"><tspan id="tspan40" x="593.607" y="1025.853" style="stroke-width: 9; font-size: 360px; word-spacing: 0px;">✔</tspan></text>
  </g>
  <g>
    <title>Glasses fill</title>
    <polygon style="fill: rgb(255, 255, 255);" points="552.242 435.043 616.09 378.942 684.401 366.345 735.56 391.269 759.458 418.401 776.424 454.36 747.598 515.74 707.984 550.929 661.077 555.055 621.739 542.392 596.378 516.077 575.107 460.415 562.295 465.856"/>
    <polygon style="fill: rgb(255, 255, 255);" points="751.232 417.343 810.454 402.523 822.042 444.261 792.128 433.484 774.123 452.188"/>
    <polygon style="fill: rgb(255, 255, 255);" points="798.241 415.18 862.089 471.281 930.4 483.878 981.559 458.954 1005.457 431.822 1022.423 395.863 993.597 334.483 953.983 299.294 907.076 295.168 867.738 307.831 842.377 334.146 821.106 389.808 808.294 384.367" transform="matrix(-0.85625, 0.516561, -0.516561, -0.85625, 1891.016477, 252.809892)"/>
  </g>
  <g id="line" transform="matrix(6.654805, -1.915037, 1.915037, 6.654805, 484.980713, 281.442352)">
    <title>Glasses</title>
    <path stroke="#000000" stroke-linecap="round" stroke-linejoin="round" stroke-miterlimit="10" d="M 33.399 36.571 C 33.399 34.914 34.742 33.571 36.399 33.571 C 38.056 33.571 39.399 34.914 39.399 36.571 M 29.337 40.577 C 27.091 43.902 22.286 46.088 17.972 46.088 C 11.068 46.088 5.472 40.491 5.472 33.588 L 5.367 28.674 L 3.472 28.724 L 3.472 24.597 C 3.472 24.597 22.403 8.418 32.952 29.918 L 35.933 29.918 L 36.395 29.918 L 39.376 29.918 C 49.925 8.418 68.856 24.597 68.856 24.597 L 68.856 28.724 L 66.961 28.674 L 66.856 33.588 C 66.856 40.491 61.26 46.088 54.356 46.088 C 50.042 46.088 45.237 43.902 42.991 40.577 M 29.397 40.449 C 29.397 40.449 30.696360718134756 38.8483216606453 31.409 38.181 C 32.08041014448603 37.552285664439076 33.535 36.531 33.535 36.531 M 43.137 40.673 C 43.137 40.673 41.93206641490734 39.00025550348569 41.259 38.293 C 40.62478907142413 37.626573686531664 39.231 36.523 39.231 36.523" style="fill: none;" stroke-width="2" bx:d="M 33.399 36.571 C 33.399 34.914 34.742 33.571 36.399 33.571 C 38.056 33.571 39.399 34.914 39.399 36.571 M 29.337 40.577 C 27.091 43.902 22.286 46.088 17.972 46.088 C 11.068 46.088 5.472 40.491 5.472 33.588 L 5.367 28.674 L 3.472 28.724 L 3.472 24.597 C 3.472 24.597 22.403 8.418 32.952 29.918 L 35.933 29.918 L 36.395 29.918 L 39.376 29.918 C 49.925 8.418 68.856 24.597 68.856 24.597 L 68.856 28.724 L 66.961 28.674 L 66.856 33.588 C 66.856 40.491 61.26 46.088 54.356 46.088 C 50.042 46.088 45.237 43.902 42.991 40.577 M 29.397 40.449 R 31.409 38.181 R 33.535 36.531 M 43.137 40.673 R 41.259 38.293 R 39.231 36.523 1@cf8f5e6b">
      <title>Rims</title>
    </path>
    <circle cx="18.3644" cy="32.5611" r="9.5798" stroke="#000000" stroke-linecap="round" stroke-linejoin="round" stroke-miterlimit="10" stroke-width="2" style="fill: rgb(125, 125, 125);">
      <title>Left lens</title>
    </circle>
    <circle cx="53.8836" cy="32.5611" r="9.5798" stroke="#000000" stroke-linecap="round" stroke-linejoin="round" stroke-miterlimit="10" stroke-width="2" style="fill: rgb(125, 125, 125);">
      <title>Right lens</title>
    </circle>
    <polyline style="fill: rgb(216, 216, 216); stroke: rgb(0, 0, 0);" points="53.108001708984375 38.7140007019043"/>
  </g>
</svg>
